<svg width="128" height="128" viewBox="0 0 128 128" fill="none" xmlns="http://www.w3.org/2000/svg">
<rect width="128" height="128" rx="26.9465" fill="#0B2D3B"/>
<path d="M95.792 60.7335L88.791 43.8298C87.9177 41.7247 86.2791 40.0833 84.1711 39.2128L67.2704 32.2118C65.1652 31.3385 62.8439 31.3385 60.7388 32.2118L43.8209 39.2185L43.6417 39.2953C41.6305 40.1885 40.0602 41.7987 39.2181 43.8298L32.2143 60.7335C31.341 62.8386 31.341 65.1599 32.2143 67.265L39.2153 84.1686C40.0886 86.2738 41.7272 87.9152 43.8323 88.7886L60.7359 95.7895C61.7885 96.2248 62.8951 96.4438 64.0017 96.4438C65.1083 96.4438 66.215 96.2248 67.2675 95.7895L84.1711 88.7886C86.2763 87.9152 87.9177 86.2766 88.791 84.1686L95.792 67.265C96.6568 65.1741 96.6568 62.8244 95.792 60.7335ZM83.0844 41.8414C84.4869 42.4217 85.5821 43.5169 86.1625 44.9194L93.1634 61.823C93.2659 62.0705 93.3427 62.3237 93.4109 62.5769L76.5784 62.5513C74.1917 62.5484 71.8391 61.8315 69.9274 60.4006C69.8136 60.3153 69.7026 60.2299 69.5945 60.1417L78.6836 51.0527C79.2383 50.498 79.2383 49.5962 78.6836 49.0415C78.1288 48.4867 77.2271 48.4867 76.6723 49.0415L67.6174 58.0964C67.5236 57.9712 67.4354 57.846 67.3472 57.718C66.0813 55.8803 65.4583 53.6727 65.4554 51.4424L65.4298 34.5957C65.6858 34.6612 65.9362 34.7408 66.1837 34.8432L83.0873 41.8442L83.0844 41.8414ZM41.8438 44.9194C42.4043 43.5653 43.4511 42.49 44.7768 41.9039L61.8255 34.8404C62.073 34.738 62.3262 34.6612 62.5793 34.5929L62.5537 51.451C62.5509 53.5817 61.9876 55.6925 60.8241 57.4762C60.6506 57.7436 60.4628 58.0025 60.2694 58.2557L51.0979 49.0841C50.5716 48.5579 49.7182 48.4725 49.1464 48.9476C48.4892 49.4909 48.4551 50.4638 49.0439 51.0527L58.261 60.2698C57.4872 60.8729 56.0563 61.4674 54.853 61.9027C53.6496 62.3379 52.2984 62.5797 50.9784 62.5797H34.5954C34.6608 62.3237 34.7405 62.0733 34.8429 61.8258L41.8438 44.9222V44.9194ZM44.9219 86.16C43.5166 85.5797 42.4242 84.4844 41.8438 83.0819L34.8429 66.1783C34.7405 65.9308 34.6636 65.6777 34.5954 65.4245H51.004C52.2984 65.4245 53.587 65.6435 54.8074 66.0759C56.0278 66.5083 57.3421 67.0488 58.096 67.6121L49.0411 76.667C48.4864 77.2217 48.4864 78.1235 49.0411 78.6782C49.5958 79.233 50.4976 79.233 51.0523 78.6782L60.1442 69.5864C60.7871 70.3829 61.4158 71.865 61.8767 73.111C62.3375 74.357 62.5822 75.714 62.5822 77.0624V93.4085C62.3262 93.343 62.0758 93.2634 61.8283 93.161L44.9247 86.16H44.9219ZM86.1625 83.0791C85.5821 84.4844 84.4869 85.5768 83.0844 86.1571L66.1808 93.1581C65.9333 93.2605 65.6801 93.3373 65.427 93.4056V77.0283C65.427 75.7055 65.6545 74.3969 66.104 73.1537C66.5535 71.9105 67.1338 70.5223 67.7369 69.7457L76.6268 78.6356C77.1531 79.1619 78.0037 79.2444 78.5783 78.7721C79.2355 78.2288 79.2696 77.253 78.6807 76.667L69.7482 67.7344C69.9985 67.5381 70.2602 67.3532 70.5276 67.1797C72.3113 66.0162 74.4221 65.4529 76.5528 65.4501L93.4138 65.4245C93.3484 65.6805 93.2687 65.9308 93.1663 66.1783L86.1653 83.0819L86.1625 83.0791Z" fill="white"/>
<path d="M60.7467 31.6402C62.925 30.7983 65.3078 30.8267 67.4725 31.7247L84.3728 38.7256C86.5408 39.6208 88.2421 41.2856 89.1889 43.4196L89.278 43.6276L89.2785 43.6282L96.2794 60.5315L96.3628 60.7406C97.1967 62.9073 97.1688 65.3158 96.2794 67.4664L89.2785 84.3703C88.3516 86.6077 86.6072 88.3487 84.3733 89.2755L84.3728 89.276L67.4695 96.2769C66.3537 96.7382 65.1782 96.9711 64.0017 96.9711C62.8252 96.9711 61.6502 96.7382 60.5345 96.2769L43.6306 89.276L43.6301 89.2755C41.3958 88.3485 39.6548 86.6046 38.728 84.3709L31.7272 67.467C30.8002 65.2325 30.8002 62.766 31.7272 60.5315L38.7311 43.6282L38.8171 43.4273C39.7296 41.3658 41.3596 39.7316 43.4277 38.8131L43.4339 38.8105L43.6131 38.7338L43.6193 38.7312L60.5366 31.7247L60.7467 31.6402ZM67.0682 32.6992C65.0925 31.8795 62.9166 31.8795 60.9409 32.6992L44.0226 39.7057L43.8552 39.7767L43.8557 39.7772C41.9681 40.6156 40.4953 42.1253 39.7051 44.0314L39.7056 44.0319L32.7016 60.9353C31.882 62.9111 31.882 65.0874 32.7016 67.0632L39.7025 83.9666L39.7813 84.1504C40.6186 86.0381 42.1198 87.5069 44.0334 88.3011L60.9368 95.3019C61.9262 95.711 62.9651 95.9164 64.0017 95.9164C64.9735 95.9164 65.9467 95.7362 66.8797 95.3766L67.0662 95.3019L83.9696 88.3011C85.9457 87.4811 87.4839 85.9449 88.3036 83.9666L95.3044 67.0637L95.3786 66.8788C96.1155 64.9641 96.0905 62.8353 95.3044 60.9348L88.3036 44.0314C87.4836 42.0556 85.9476 40.5172 83.9701 39.7005L83.969 39.7L67.0682 32.6992ZM93.9246 65.5552C93.8542 65.8308 93.7673 66.1053 93.6537 66.3797L86.3506 84.0129L86.3104 83.9727C85.6817 85.0851 84.7327 85.9698 83.5694 86.5191L83.2861 86.6442L66.3827 93.6456C66.1051 93.7604 65.8268 93.8442 65.5643 93.9149L64.8994 94.0942V77.028C64.8995 75.6446 65.1377 74.2753 65.6081 72.9742C66.0552 71.7376 66.6596 70.2732 67.3206 69.422L67.6873 68.9497L76.9996 78.2626C77.354 78.6169 77.8996 78.6471 78.2434 78.3645C78.6579 78.0207 78.6778 77.4082 78.3088 77.0409L68.9543 67.6864L69.423 67.3192C69.621 67.1639 69.825 67.0163 70.0323 66.8757L70.2403 66.7372C72.1182 65.5125 74.3309 64.9257 76.5521 64.9227L94.093 64.8959L93.9246 65.5552ZM62.0549 77.0625C62.0549 75.7766 61.8214 74.4814 61.3823 73.294C61.0077 72.2813 60.5419 71.1731 60.071 70.4047L51.4251 79.0511C50.6644 79.8118 49.4289 79.8118 48.6682 79.0511C47.9075 78.2904 47.9075 77.0548 48.6682 76.2941L57.2605 67.7013C56.5579 67.3035 55.5895 66.9124 54.6312 66.5729C53.468 66.1608 52.2388 65.9517 51.0038 65.9517H35.3206C35.3239 65.96 35.327 65.9683 35.3304 65.9765L42.3312 82.8804L42.4352 83.1157C42.9783 84.2663 43.9123 85.1626 45.0938 85.659L45.1263 85.6729L62.0302 92.6737L62.0549 92.683V77.0625ZM63.0814 51.452C63.0783 53.6734 62.4909 55.8862 61.2659 57.7643C61.0828 58.0463 60.8868 58.3164 60.6885 58.576L60.3229 59.0549L50.7247 49.4573C50.3686 49.1012 49.8221 49.072 49.4835 49.3533L49.4824 49.3543C49.0674 49.6976 49.0459 50.3089 49.417 50.68L59.0559 60.3188L58.5851 60.6855C57.736 61.3473 56.2277 61.9662 55.0324 62.3985C53.772 62.8544 52.36 63.1072 50.9786 63.1072H33.9161L34.0845 62.449C34.1549 62.1734 34.2419 61.8988 34.3554 61.6244L41.3166 44.8174V44.8148L41.3568 44.718C41.9685 43.2399 43.1125 42.0632 44.5634 41.4218L44.5747 41.4166L61.6238 34.3529L61.8319 34.2726C62.0396 34.1972 62.2453 34.1367 62.4422 34.0836L63.1076 33.9043L63.0814 51.452ZM65.5602 34.0846C65.836 34.1551 66.1108 34.2424 66.3853 34.356L83.2851 41.3548L83.2861 41.3543C84.8178 41.9881 86.0159 43.1858 86.6498 44.7174L93.6506 61.6213L93.7315 61.8294C93.8068 62.037 93.8669 62.2428 93.92 62.4397L94.0997 63.1052L76.5778 63.0789C74.0876 63.0759 71.622 62.3279 69.6115 60.823L69.611 60.8225C69.4941 60.7349 69.3769 60.6449 69.2612 60.5506L68.8091 60.1813L78.3109 50.68L78.3722 50.612C78.6582 50.261 78.6376 49.7415 78.3109 49.4145C77.9839 49.0875 77.464 49.067 77.1129 49.3533L77.0455 49.4145L67.5606 58.8994L67.1955 58.4127C67.1455 58.3461 67.0976 58.2798 67.0507 58.2139L66.9127 58.0171C65.6638 56.2042 65.0147 54.0571 64.936 51.879L64.9278 51.4433L64.9015 33.9162L65.5602 34.0846ZM62.0271 35.3279L44.9893 42.3859L44.9898 42.3864C43.8028 42.9112 42.8618 43.8698 42.3487 45.0805L42.3312 45.1238L35.3304 62.0277C35.327 62.0359 35.3239 62.0442 35.3206 62.0524H50.9786C52.2369 62.0524 53.5274 61.8211 54.6735 61.4066C55.6376 61.0578 56.6913 60.6245 57.4335 60.188L48.6713 51.4258C47.8899 50.6444 47.9091 49.3676 48.7284 48.6126L48.8103 48.5411C49.6153 47.8732 50.7748 48.0149 51.471 48.711L60.2065 57.447C60.2661 57.3613 60.3253 57.2757 60.3816 57.189L60.3826 57.1879L60.5824 56.8676C61.5496 55.2476 62.024 53.3628 62.0266 51.4505L62.0503 35.3186C62.0426 35.3217 62.0347 35.3247 62.0271 35.3279ZM65.9826 51.4417L65.9903 51.8414C66.0604 53.7809 66.6239 55.6758 67.6878 57.2796L76.2992 48.6688L76.3723 48.5993C77.1371 47.9086 78.3198 47.9319 79.0567 48.6688C79.7934 49.4057 79.8165 50.5884 79.1257 51.3531L79.0567 51.4258L70.3933 60.0881C72.1788 61.3721 74.3581 62.0214 76.5788 62.0241L92.6849 62.0478L92.6762 62.0246L85.6754 45.1212C85.149 43.8492 84.1576 42.8569 82.8859 42.3298L82.8854 42.3313L65.982 35.3305C65.9742 35.3272 65.9662 35.3244 65.9583 35.3212L65.9826 51.4417ZM63.1097 94.0875L62.4515 93.9196C62.1758 93.8491 61.9014 93.7617 61.6269 93.6482L44.8198 86.6875H44.8173L44.7204 86.6473C43.2812 86.0529 42.141 84.9627 41.4819 83.5669L41.3568 83.2836L34.3554 66.3802C34.2405 66.1026 34.1568 65.8243 34.086 65.5619L33.9068 64.8969H51.0038C52.3575 64.8969 53.7059 65.1262 54.9835 65.5789C56.1988 66.0094 57.5854 66.5721 58.4116 67.1894L58.8998 67.554L49.4139 77.0399C49.0652 77.3886 49.0652 77.9566 49.4139 78.3053C49.7627 78.6541 50.3306 78.6541 50.6794 78.3053L60.1864 68.7988L60.5546 69.2552C61.2595 70.1285 61.9136 71.6908 62.3711 72.9279C62.8537 74.2324 63.1097 75.6517 63.1097 77.0625V94.0875ZM65.9542 92.6799C65.9624 92.6766 65.9708 92.674 65.9789 92.6706L82.8828 85.6698L83.1182 85.5657C84.2785 85.0181 85.1811 84.0734 85.6748 82.8778L85.9766 82.1475L85.9797 82.1506L92.6788 65.9765L92.688 65.9528L76.5536 65.9775C74.5137 65.9802 72.5048 66.5196 70.8156 67.6215L70.8146 67.622C70.7272 67.6787 70.641 67.7371 70.5555 67.7961L79.0525 76.2931L79.1262 76.3703C79.8572 77.1809 79.7849 78.4591 78.9145 79.1788L78.913 79.1793C78.1075 79.8412 76.9521 79.7066 76.2539 79.0083L67.8181 70.5726C67.385 71.3071 66.9592 72.3398 66.6001 73.3332C66.1716 74.5183 65.9543 75.766 65.9542 77.028V92.6799Z" fill="white"/>
</svg>
