<svg width="137" height="111" viewBox="0 0 137 111" fill="none" xmlns="http://www.w3.org/2000/svg">
<g filter="url(#filter0_d_587_2448)">
<g clip-path="url(#clip0_587_2448)">
<rect x="28.3662" y="24.2334" width="77" height="51.3434" rx="9.51804" fill="white"/>
<path d="M76.8981 32.4101H75.6716V50.8084H76.8981C78.2473 50.8084 79.3512 49.7045 79.3512 48.3553V34.8632C79.3512 33.514 78.2473 32.4101 76.8981 32.4101ZM54.8202 34.8632V48.3553C54.8202 49.7045 55.9229 50.8084 57.2733 50.8084H58.4998V32.4101H57.2733C55.9229 32.4101 54.8202 33.514 54.8202 34.8632ZM71.3786 29.8417C70.5434 29.4541 69.0617 28.7305 67.0624 28.7305C65.0594 28.7305 63.6281 29.4541 62.7928 29.8417V32.4101H59.7264V50.8084H74.445V32.4101H71.3786V29.8417ZM69.5388 32.4101H64.6326V30.7715C65.2876 30.4893 65.9548 30.2011 67.0624 30.2011C68.1687 30.2011 68.8851 30.4881 69.5388 30.7715V32.4101Z" fill="black"/>
<path d="M58.1206 66.2042C57.6688 66.2042 57.2796 66.1208 56.9529 65.954C56.6263 65.7802 56.3726 65.53 56.1919 65.2033C56.0111 64.8767 55.9208 64.4874 55.9208 64.0357H56.9738C56.9738 64.272 57.012 64.484 57.0885 64.6716C57.1649 64.8593 57.2831 65.0087 57.4429 65.1199C57.6097 65.2242 57.8287 65.2763 58.0998 65.2763C58.3708 65.2763 58.5828 65.2242 58.7357 65.1199C58.8956 65.0157 59.0103 64.8767 59.0798 64.7029C59.1493 64.5222 59.184 64.3172 59.184 64.0878V58.7811H60.2266V64.0878C60.2266 64.762 60.0389 65.2833 59.6636 65.6516C59.2883 66.02 58.7739 66.2042 58.1206 66.2042ZM63.8826 66.2042C63.3891 66.2042 62.9443 66.0895 62.5481 65.8602C62.1589 65.6308 61.8496 65.3111 61.6202 64.901C61.3978 64.484 61.2866 64.0044 61.2866 63.4623C61.2866 62.9062 61.4013 62.4232 61.6306 62.0131C61.86 61.5961 62.1728 61.2729 62.5689 61.0435C62.9651 60.8141 63.41 60.6994 63.9034 60.6994C64.4039 60.6994 64.8487 60.8141 65.2379 61.0435C65.6272 61.2729 65.933 61.5926 66.1554 62.0027C66.3848 62.4127 66.4994 62.8958 66.4994 63.4518C66.4994 64.0079 66.3848 64.4909 66.1554 64.901C65.933 65.3111 65.6237 65.6308 65.2275 65.8602C64.8313 66.0895 64.383 66.2042 63.8826 66.2042ZM63.8826 65.3076C64.1676 65.3076 64.4247 65.2381 64.6541 65.0991C64.8904 64.9601 65.0781 64.755 65.2171 64.484C65.363 64.206 65.436 63.8619 65.436 63.4518C65.436 63.0418 65.3665 62.7012 65.2275 62.4301C65.0885 62.1521 64.9008 61.9436 64.6645 61.8046C64.4351 61.6656 64.1815 61.5961 63.9034 61.5961C63.6254 61.5961 63.3683 61.6656 63.1319 61.8046C62.8956 61.9436 62.7045 62.1521 62.5585 62.4301C62.4195 62.7012 62.35 63.0418 62.35 63.4518C62.35 63.8619 62.4195 64.206 62.5585 64.484C62.7045 64.755 62.8921 64.9601 63.1215 65.0991C63.3578 65.2381 63.6115 65.3076 63.8826 65.3076ZM70.3844 66.2042C70.0994 66.2042 69.8388 66.1625 69.6025 66.0791C69.3731 66.0026 69.1715 65.8949 68.9978 65.7559C68.824 65.6169 68.678 65.457 68.5599 65.2763L68.4556 66.0791H67.5173V58.5726H68.5599V61.6482C68.7267 61.3841 68.9595 61.1617 69.2584 60.9809C69.5642 60.7933 69.9396 60.6994 70.3844 60.6994C70.8848 60.6994 71.3262 60.8211 71.7084 61.0643C72.0907 61.3007 72.3861 61.6273 72.5946 62.0444C72.8101 62.4544 72.9178 62.9271 72.9178 63.4623C72.9178 63.9835 72.8101 64.4527 72.5946 64.8697C72.3861 65.2867 72.0907 65.6134 71.7084 65.8497C71.3262 66.0861 70.8848 66.2042 70.3844 66.2042ZM70.2176 65.2972C70.5373 65.2972 70.8188 65.2207 71.0621 65.0678C71.3123 64.9149 71.5069 64.6994 71.6459 64.4214C71.7919 64.1434 71.8648 63.8202 71.8648 63.4518C71.8648 63.0835 71.7919 62.7637 71.6459 62.4927C71.5069 62.2146 71.3123 61.9992 71.0621 61.8463C70.8188 61.6864 70.5373 61.6065 70.2176 61.6065C69.8909 61.6065 69.6025 61.6864 69.3522 61.8463C69.109 61.9992 68.9178 62.2146 68.7788 62.4927C68.6398 62.7637 68.5703 63.0835 68.5703 63.4518C68.5703 63.8202 68.6398 64.1434 68.7788 64.4214C68.9178 64.6994 69.109 64.9149 69.3522 65.0678C69.6025 65.2207 69.8909 65.2972 70.2176 65.2972ZM75.9597 66.2042C75.5149 66.2042 75.1256 66.1312 74.792 65.9853C74.4584 65.8393 74.1943 65.6343 73.9997 65.3702C73.805 65.106 73.6869 64.7967 73.6452 64.4423H74.7086C74.7434 64.6091 74.8094 64.762 74.9067 64.901C75.0109 65.04 75.15 65.1512 75.3237 65.2346C75.5044 65.318 75.7164 65.3597 75.9597 65.3597C76.189 65.3597 76.3767 65.3285 76.5227 65.2659C76.6756 65.1964 76.7868 65.106 76.8563 64.9948C76.9258 64.8767 76.9605 64.7516 76.9605 64.6195C76.9605 64.4249 76.9119 64.2789 76.8146 64.1816C76.7242 64.0774 76.5852 63.9974 76.3976 63.9418C76.2168 63.8793 75.9979 63.8237 75.7407 63.775C75.4975 63.7333 75.2612 63.6777 75.0318 63.6082C74.8094 63.5318 74.6078 63.4379 74.4271 63.3267C74.2533 63.2155 74.1143 63.0765 74.0101 62.9097C73.9058 62.7359 73.8537 62.5239 73.8537 62.2737C73.8537 61.9749 73.9336 61.7073 74.0935 61.4709C74.2533 61.2277 74.4792 61.04 74.7712 60.908C75.07 60.769 75.421 60.6994 75.8241 60.6994C76.408 60.6994 76.8771 60.8385 77.2316 61.1165C77.5861 61.3945 77.7946 61.7872 77.8572 62.2946H76.8459C76.8181 62.0583 76.7138 61.8776 76.5331 61.7524C76.3524 61.6204 76.1126 61.5544 75.8137 61.5544C75.5149 61.5544 75.2855 61.6134 75.1256 61.7316C74.9658 61.8497 74.8858 62.0061 74.8858 62.2007C74.8858 62.3259 74.931 62.4371 75.0214 62.5344C75.1117 62.6317 75.2438 62.7151 75.4175 62.7846C75.5983 62.8471 75.8172 62.9062 76.0744 62.9618C76.4427 63.0313 76.7729 63.1182 77.0648 63.2225C77.3567 63.3267 77.5896 63.4796 77.7633 63.6812C77.9371 63.8828 78.024 64.1712 78.024 64.5465C78.0309 64.8732 77.9475 65.1616 77.7738 65.4119C77.6069 65.6621 77.3672 65.8567 77.0544 65.9957C76.7486 66.1347 76.3837 66.2042 75.9597 66.2042Z" fill="black"/>
</g>
</g>
<rect x="73.3662" y="6.2334" width="45.0404" height="26.6566" rx="13.3283" fill="#CB132D"/>
<path d="M88.9659 26.8014C88.0595 26.8014 87.2865 26.6282 86.6467 26.2816C86.007 25.9218 85.5005 25.4486 85.1273 24.8622C84.7541 24.2624 84.5275 23.616 84.4476 22.9229H86.3069C86.4401 23.616 86.74 24.1558 87.2065 24.5423C87.673 24.9155 88.2661 25.1021 88.9858 25.1021C89.6523 25.1021 90.2387 24.9022 90.7452 24.5023C91.2517 24.1025 91.6582 23.496 91.9647 22.683C92.2713 21.87 92.4445 20.8437 92.4845 19.6042C92.4978 19.5642 92.5045 19.5242 92.5045 19.4842C92.5045 19.4442 92.5045 19.4042 92.5045 19.3643C92.2913 19.7641 91.998 20.1306 91.6248 20.4638C91.2517 20.797 90.8118 21.0636 90.3053 21.2635C89.8122 21.4501 89.2591 21.5434 88.646 21.5434C87.8596 21.5434 87.1199 21.3635 86.4268 21.0036C85.7471 20.6304 85.1873 20.104 84.7475 19.4242C84.3209 18.7445 84.1077 17.9515 84.1077 17.0451C84.1077 16.2321 84.301 15.4657 84.6875 14.746C85.0873 14.0263 85.6471 13.4465 86.3668 13.0067C87.0999 12.5535 87.9596 12.3269 88.9459 12.3269C89.9721 12.3269 90.8318 12.5202 91.5249 12.9067C92.2313 13.2799 92.7911 13.793 93.2042 14.4461C93.6308 15.0859 93.9373 15.8056 94.1239 16.6053C94.3238 17.3917 94.4238 18.2047 94.4238 19.0444C94.4238 20.5771 94.2105 21.9299 93.784 23.1028C93.3575 24.2624 92.7378 25.1687 91.9247 25.8218C91.1117 26.4749 90.1254 26.8014 88.9659 26.8014ZM89.0858 19.8441C89.6589 19.8441 90.1721 19.7175 90.6252 19.4642C91.0784 19.1976 91.4382 18.8444 91.7048 18.4046C91.9714 17.9648 92.1047 17.4783 92.1047 16.9452C92.1047 16.3854 91.9714 15.8922 91.7048 15.4657C91.4382 15.0259 91.0717 14.686 90.6052 14.4461C90.1521 14.1929 89.6389 14.0663 89.0658 14.0663C88.506 14.0663 87.9996 14.1929 87.5464 14.4461C87.0932 14.686 86.7334 15.0259 86.4668 15.4657C86.2136 15.8922 86.0869 16.392 86.0869 16.9652C86.0869 17.5383 86.2136 18.0448 86.4668 18.4846C86.7334 18.9111 87.0932 19.2443 87.5464 19.4842C87.9996 19.7241 88.5127 19.8441 89.0858 19.8441ZM101.999 26.8014C100.759 26.8014 99.6928 26.5015 98.7998 25.9018C97.9068 25.2887 97.2204 24.4423 96.7406 23.3627C96.2607 22.2698 96.0208 21.0036 96.0208 19.5642C96.0208 18.1247 96.2607 16.8652 96.7406 15.7856C97.2204 14.6927 97.9068 13.8463 98.7998 13.2466C99.6928 12.6335 100.759 12.3269 101.999 12.3269C103.238 12.3269 104.298 12.6335 105.177 13.2466C106.07 13.8463 106.75 14.6927 107.217 15.7856C107.696 16.8652 107.936 18.1247 107.936 19.5642C107.936 21.0036 107.696 22.2698 107.217 23.3627C106.75 24.4423 106.07 25.2887 105.177 25.9018C104.298 26.5015 103.238 26.8014 101.999 26.8014ZM101.999 25.0221C102.745 25.0221 103.411 24.8022 103.998 24.3624C104.598 23.9225 105.064 23.2961 105.397 22.4831C105.73 21.67 105.897 20.6971 105.897 19.5642C105.897 18.4313 105.73 17.4583 105.397 16.6453C105.064 15.8323 104.598 15.2125 103.998 14.786C103.411 14.3462 102.745 14.1262 101.999 14.1262C101.239 14.1262 100.559 14.3462 99.9593 14.786C99.3596 15.2125 98.8931 15.8323 98.5599 16.6453C98.2267 17.4583 98.0601 18.4313 98.0601 19.5642C98.0601 20.6971 98.2267 21.67 98.5599 22.4831C98.8931 23.2961 99.3596 23.9225 99.9593 24.3624C100.559 24.8022 101.239 25.0221 101.999 25.0221Z" fill="white"/>
<defs>
<filter id="filter0_d_587_2448" x="-4.44651e-05" y="-2.52724e-05" width="136.488" height="110.831" filterUnits="userSpaceOnUse" color-interpolation-filters="sRGB">
<feFlood flood-opacity="0" result="BackgroundImageFix"/>
<feColorMatrix in="SourceAlpha" type="matrix" values="0 0 0 0 0 0 0 0 0 0 0 0 0 0 0 0 0 0 127 0" result="hardAlpha"/>
<feOffset dx="1.37761" dy="5.51044"/>
<feGaussianBlur stdDeviation="14.8719"/>
<feComposite in2="hardAlpha" operator="out"/>
<feColorMatrix type="matrix" values="0 0 0 0 0.262583 0 0 0 0 0.262583 0 0 0 0 0.262583 0 0 0 0.16 0"/>
<feBlend mode="normal" in2="BackgroundImageFix" result="effect1_dropShadow_587_2448"/>
<feBlend mode="normal" in="SourceGraphic" in2="effect1_dropShadow_587_2448" result="shape"/>
</filter>
<clipPath id="clip0_587_2448">
<rect x="28.3662" y="24.2334" width="77" height="51.3434" rx="9.51804" fill="white"/>
</clipPath>
</defs>
</svg>
