<svg width="159" height="129" viewBox="0 0 159 129" fill="none" xmlns="http://www.w3.org/2000/svg">
<g filter="url(#filter0_d_587_2525)">
<g clip-path="url(#clip0_587_2525)">
<rect x="32.866" y="28.0771" width="89.2145" height="59.4886" rx="11.0279" fill="white"/>
<path fill-rule="evenodd" clip-rule="evenodd" d="M82.2437 34.8928C76.1471 29.5636 66.6939 32.5792 64.5949 40.4835C63.7138 43.8004 64.5636 45.3394 64.5636 47.8292C64.5636 50.3872 63.5162 54.0949 63.5162 54.0949C63.5162 54.5483 63.9184 54.9902 64.4144 54.8623C66.1865 54.3976 69.0046 53.481 72.3769 54.3962C83.7132 57.4701 90.9879 42.5341 82.2437 34.8928ZM91.1541 60.6378C91.0775 60.6378 91.0011 60.6283 90.9268 60.6094C81.9638 58.3583 82.5649 60.885 77.5853 59.5535C76.1037 59.1507 74.7211 58.4468 73.5238 57.4857C82.5677 58.5942 90.1068 50.7141 88.7724 41.4356C90.1366 42.8567 91.1399 44.6161 91.5634 46.5872C92.77 52.1807 89.7074 51.2342 91.9159 59.7354C92.0452 60.2328 91.6061 60.6378 91.1541 60.6378Z" fill="black"/>
<path d="M51.35 78.4277V69.9721H52.7754L55.6382 75.6857L58.489 69.9721H59.9265V78.4277H58.7185V72.086L56.0973 77.2439H55.1671L52.558 72.0981V78.4277H51.35ZM64.1358 78.5727C63.556 78.5727 63.0406 78.4398 62.5896 78.1741C62.1386 77.9083 61.7843 77.5379 61.5266 77.0628C61.277 76.5876 61.1522 76.036 61.1522 75.4079C61.1522 74.7636 61.277 74.2039 61.5266 73.7288C61.7843 73.2456 62.1386 72.8712 62.5896 72.6054C63.0406 72.3316 63.564 72.1947 64.1599 72.1947C64.7559 72.1947 65.2672 72.3276 65.694 72.5933C66.1209 72.8591 66.451 73.2134 66.6846 73.6563C66.9181 74.0912 67.0349 74.5744 67.0349 75.1059C67.0349 75.1864 67.0308 75.275 67.0228 75.3716C67.0228 75.4602 67.0188 75.5609 67.0107 75.6736H62.034V74.816H65.8269C65.8028 74.3086 65.6336 73.914 65.3196 73.6322C65.0055 73.3423 64.6149 73.1973 64.1479 73.1973C63.8177 73.1973 63.5157 73.2738 63.2419 73.4268C62.9681 73.5718 62.7466 73.7892 62.5775 74.0791C62.4165 74.361 62.3359 74.7193 62.3359 75.1542V75.4924C62.3359 75.9434 62.4165 76.3259 62.5775 76.64C62.7466 76.946 62.9681 77.1795 63.2419 77.3406C63.5157 77.4936 63.8137 77.5701 64.1358 77.5701C64.5223 77.5701 64.8404 77.4855 65.0901 77.3164C65.3397 77.1473 65.5249 76.9178 65.6457 76.6279H66.8537C66.749 76.9983 66.5718 77.3325 66.3222 77.6305C66.0725 77.9204 65.7625 78.1499 65.3921 78.319C65.0297 78.4881 64.6109 78.5727 64.1358 78.5727ZM70.4908 78.5727C69.9754 78.5727 69.5245 78.4881 69.1379 78.319C68.7514 78.1499 68.4454 77.9123 68.2199 77.6063C67.9944 77.3003 67.8575 76.942 67.8092 76.5313H69.0413C69.0816 76.7245 69.1581 76.9017 69.2708 77.0628C69.3916 77.2238 69.5527 77.3527 69.754 77.4493C69.9634 77.5459 70.209 77.5942 70.4908 77.5942C70.7566 77.5942 70.974 77.558 71.1431 77.4855C71.3203 77.405 71.4491 77.3003 71.5297 77.1715C71.6102 77.0346 71.6505 76.8896 71.6505 76.7366C71.6505 76.5111 71.5941 76.342 71.4814 76.2293C71.3767 76.1085 71.2156 76.0159 70.9982 75.9514C70.7888 75.879 70.5351 75.8145 70.2372 75.7582C69.9553 75.7098 69.6815 75.6454 69.4158 75.5649C69.1581 75.4763 68.9245 75.3676 68.7151 75.2387C68.5138 75.1099 68.3528 74.9488 68.232 74.7556C68.1112 74.5542 68.0508 74.3086 68.0508 74.0187C68.0508 73.6724 68.1434 73.3624 68.3286 73.0886C68.5138 72.8067 68.7755 72.5893 69.1138 72.4363C69.4601 72.2752 69.8667 72.1947 70.3338 72.1947C71.0103 72.1947 71.5538 72.3558 71.9645 72.6779C72.3752 73 72.6168 73.455 72.6893 74.0429H71.5176C71.4854 73.7691 71.3646 73.5597 71.1552 73.4147C70.9458 73.2617 70.668 73.1852 70.3217 73.1852C69.9754 73.1852 69.7097 73.2537 69.5245 73.3906C69.3393 73.5275 69.2466 73.7087 69.2466 73.9342C69.2466 74.0791 69.299 74.208 69.4037 74.3207C69.5084 74.4334 69.6614 74.5301 69.8627 74.6106C70.0721 74.6831 70.3258 74.7515 70.6237 74.816C71.0505 74.8965 71.433 74.9972 71.7713 75.1179C72.1095 75.2387 72.3793 75.4159 72.5806 75.6494C72.7819 75.883 72.8826 76.2172 72.8826 76.652C72.8906 77.0305 72.794 77.3647 72.5927 77.6546C72.3994 77.9446 72.1216 78.17 71.7592 78.3311C71.4049 78.4922 70.9821 78.5727 70.4908 78.5727ZM76.4188 78.5727C75.9034 78.5727 75.4524 78.4881 75.0659 78.319C74.6793 78.1499 74.3733 77.9123 74.1478 77.6063C73.9223 77.3003 73.7854 76.942 73.7371 76.5313H74.9692C75.0095 76.7245 75.086 76.9017 75.1987 77.0628C75.3195 77.2238 75.4806 77.3527 75.6819 77.4493C75.8913 77.5459 76.1369 77.5942 76.4188 77.5942C76.6845 77.5942 76.9019 77.558 77.0711 77.4855C77.2482 77.405 77.3771 77.3003 77.4576 77.1715C77.5381 77.0346 77.5784 76.8896 77.5784 76.7366C77.5784 76.5111 77.522 76.342 77.4093 76.2293C77.3046 76.1085 77.1435 76.0159 76.9261 75.9514C76.7167 75.879 76.4631 75.8145 76.1651 75.7582C75.8832 75.7098 75.6094 75.6454 75.3437 75.5649C75.086 75.4763 74.8525 75.3676 74.6431 75.2387C74.4417 75.1099 74.2807 74.9488 74.1599 74.7556C74.0391 74.5542 73.9787 74.3086 73.9787 74.0187C73.9787 73.6724 74.0713 73.3624 74.2565 73.0886C74.4417 72.8067 74.7035 72.5893 75.0417 72.4363C75.388 72.2752 75.7947 72.1947 76.2617 72.1947C76.9382 72.1947 77.4818 72.3558 77.8925 72.6779C78.3032 73 78.5448 73.455 78.6172 74.0429H77.4455C77.4133 73.7691 77.2925 73.5597 77.0831 73.4147C76.8738 73.2617 76.5959 73.1852 76.2496 73.1852C75.9034 73.1852 75.6376 73.2537 75.4524 73.3906C75.2672 73.5275 75.1746 73.7087 75.1746 73.9342C75.1746 74.0791 75.2269 74.208 75.3316 74.3207C75.4363 74.4334 75.5893 74.5301 75.7906 74.6106C76 74.6831 76.2537 74.7515 76.5516 74.816C76.9784 74.8965 77.361 74.9972 77.6992 75.1179C78.0374 75.2387 78.3072 75.4159 78.5085 75.6494C78.7098 75.883 78.8105 76.2172 78.8105 76.652C78.8186 77.0305 78.7219 77.3647 78.5206 77.6546C78.3273 77.9446 78.0495 78.17 77.6871 78.3311C77.3328 78.4922 76.91 78.5727 76.4188 78.5727ZM82.0085 78.5727C81.5092 78.5727 81.0944 78.4881 80.7643 78.319C80.4341 78.1499 80.1885 77.9244 80.0274 77.6426C79.8664 77.3527 79.7858 77.0426 79.7858 76.7124C79.7858 76.3098 79.8905 75.9675 80.0999 75.6857C80.3093 75.3958 80.6072 75.1743 80.9938 75.0213C81.3803 74.8683 81.8434 74.7918 82.3829 74.7918H83.9653C83.9653 74.4375 83.913 74.1435 83.8083 73.91C83.7036 73.6765 83.5466 73.5033 83.3372 73.3906C83.1359 73.2698 82.8782 73.2094 82.5641 73.2094C82.2017 73.2094 81.8917 73.298 81.634 73.4751C81.3763 73.6442 81.2152 73.8979 81.1508 74.2361H79.9429C79.9912 73.8093 80.1361 73.447 80.3777 73.149C80.6274 72.843 80.9455 72.6094 81.332 72.4484C81.7185 72.2793 82.1293 72.1947 82.5641 72.1947C83.1359 72.1947 83.615 72.2954 84.0016 72.4967C84.3881 72.698 84.678 72.9839 84.8713 73.3543C85.0726 73.7167 85.1733 74.1516 85.1733 74.6589V78.4277H84.1224L84.0257 77.401C83.9372 77.562 83.8325 77.715 83.7117 77.86C83.5909 78.005 83.4459 78.1298 83.2768 78.2345C83.1157 78.3392 82.9265 78.4197 82.7091 78.4761C82.4997 78.5405 82.2662 78.5727 82.0085 78.5727ZM82.238 77.5942C82.4957 77.5942 82.7292 77.5419 82.9386 77.4372C83.148 77.3325 83.3251 77.1916 83.4701 77.0144C83.6231 76.8292 83.7358 76.6239 83.8083 76.3984C83.8888 76.1648 83.9331 75.9273 83.9412 75.6857V75.6494H82.5037C82.1574 75.6494 81.8756 75.6937 81.6582 75.7823C81.4488 75.8629 81.2958 75.9756 81.1991 76.1205C81.1025 76.2655 81.0542 76.4346 81.0542 76.6279C81.0542 76.8292 81.0985 77.0024 81.1871 77.1473C81.2837 77.2842 81.4206 77.3929 81.5978 77.4735C81.7749 77.554 81.9883 77.5942 82.238 77.5942ZM88.9498 81.2302C88.3942 81.2302 87.9029 81.1577 87.4761 81.0127C87.0493 80.8758 86.7192 80.6624 86.4856 80.3725C86.2521 80.0826 86.1353 79.7283 86.1353 79.3095C86.1353 79.0921 86.1836 78.8706 86.2803 78.6452C86.3769 78.4277 86.5339 78.2184 86.7514 78.017C86.9688 77.8157 87.2627 77.6345 87.6332 77.4735L88.3096 78.017C87.8989 78.17 87.6211 78.3512 87.4761 78.5606C87.3392 78.778 87.2708 78.9874 87.2708 79.1887C87.2708 79.4303 87.3433 79.6317 87.4882 79.7927C87.6332 79.9538 87.8305 80.0746 88.0801 80.1551C88.3378 80.2356 88.6277 80.2759 88.9498 80.2759C89.2639 80.2759 89.5377 80.2316 89.7712 80.143C90.0048 80.0544 90.186 79.9296 90.3148 79.7686C90.4437 79.6075 90.5081 79.4183 90.5081 79.2008C90.5081 78.9431 90.4115 78.7257 90.2182 78.5485C90.0249 78.3794 89.6545 78.2788 89.1069 78.2465C88.6478 78.2143 88.2573 78.17 87.9352 78.1137C87.6211 78.0573 87.3513 77.9888 87.1258 77.9083C86.9084 77.8278 86.7232 77.7392 86.5702 77.6426C86.4252 77.5459 86.3004 77.4453 86.1957 77.3406V77.0628L87.4037 75.8186L88.3821 76.1568L87.0654 77.3768L87.3191 76.8332C87.4077 76.8896 87.4922 76.946 87.5728 77.0024C87.6533 77.0507 87.762 77.095 87.8989 77.1352C88.0358 77.1755 88.221 77.2117 88.4546 77.2439C88.6881 77.2762 88.9941 77.3084 89.3726 77.3406C89.9202 77.3808 90.3591 77.4775 90.6893 77.6305C91.0275 77.7835 91.2731 77.9888 91.4261 78.2465C91.5791 78.5042 91.6556 78.8103 91.6556 79.1646C91.6556 79.5109 91.559 79.841 91.3657 80.1551C91.1805 80.4692 90.8866 80.7269 90.4839 80.9282C90.0893 81.1295 89.578 81.2302 88.9498 81.2302ZM88.9498 76.5554C88.4344 76.5554 87.9956 76.4588 87.6332 76.2655C87.2788 76.0722 87.005 75.8105 86.8118 75.4803C86.6265 75.1502 86.5339 74.7837 86.5339 74.3811C86.5339 73.9704 86.6265 73.604 86.8118 73.2819C87.005 72.9517 87.2829 72.69 87.6452 72.4967C88.0076 72.2954 88.4425 72.1947 88.9498 72.1947C89.4572 72.1947 89.888 72.2954 90.2423 72.4967C90.6047 72.69 90.8785 72.9517 91.0637 73.2819C91.257 73.604 91.3537 73.9704 91.3537 74.3811C91.3537 74.7837 91.257 75.1502 91.0637 75.4803C90.8785 75.8105 90.6047 76.0722 90.2423 76.2655C89.888 76.4588 89.4572 76.5554 88.9498 76.5554ZM88.9498 75.5891C89.3444 75.5891 89.6585 75.4884 89.892 75.2871C90.1256 75.0777 90.2423 74.7757 90.2423 74.3811C90.2423 73.9865 90.1256 73.6885 89.892 73.4872C89.6585 73.2778 89.3444 73.1731 88.9498 73.1731C88.5552 73.1731 88.2371 73.2778 87.9956 73.4872C87.754 73.6885 87.6332 73.9865 87.6332 74.3811C87.6332 74.7757 87.754 75.0777 87.9956 75.2871C88.2371 75.4884 88.5552 75.5891 88.9498 75.5891ZM89.9404 73.2939L89.6504 72.3397H92.1509V73.1731L89.9404 73.2939ZM95.6392 78.5727C95.0594 78.5727 94.544 78.4398 94.0931 78.1741C93.6421 77.9083 93.2878 77.5379 93.0301 77.0628C92.7804 76.5876 92.6556 76.036 92.6556 75.4079C92.6556 74.7636 92.7804 74.2039 93.0301 73.7288C93.2878 73.2456 93.6421 72.8712 94.0931 72.6054C94.544 72.3316 95.0675 72.1947 95.6634 72.1947C96.2593 72.1947 96.7707 72.3276 97.1975 72.5933C97.6243 72.8591 97.9545 73.2134 98.188 73.6563C98.4216 74.0912 98.5383 74.5744 98.5383 75.1059C98.5383 75.1864 98.5343 75.275 98.5262 75.3716C98.5262 75.4602 98.5222 75.5609 98.5142 75.6736H93.5374V74.816H97.3304C97.3062 74.3086 97.1371 73.914 96.823 73.6322C96.509 73.3423 96.1184 73.1973 95.6513 73.1973C95.3211 73.1973 95.0192 73.2738 94.7454 73.4268C94.4716 73.5718 94.2501 73.7892 94.081 74.0791C93.9199 74.361 93.8394 74.7193 93.8394 75.1542V75.4924C93.8394 75.9434 93.9199 76.3259 94.081 76.64C94.2501 76.946 94.4716 77.1795 94.7454 77.3406C95.0192 77.4936 95.3171 77.5701 95.6392 77.5701C96.0258 77.5701 96.3439 77.4855 96.5935 77.3164C96.8432 77.1473 97.0284 76.9178 97.1492 76.6279H98.3571C98.2524 76.9983 98.0753 77.3325 97.8256 77.6305C97.576 77.9204 97.2659 78.1499 96.8955 78.319C96.5331 78.4881 96.1144 78.5727 95.6392 78.5727ZM101.994 78.5727C101.479 78.5727 101.028 78.4881 100.641 78.319C100.255 78.1499 99.9488 77.9123 99.7233 77.6063C99.4979 77.3003 99.361 76.942 99.3126 76.5313H100.545C100.585 76.7245 100.662 76.9017 100.774 77.0628C100.895 77.2238 101.056 77.3527 101.257 77.4493C101.467 77.5459 101.712 77.5942 101.994 77.5942C102.26 77.5942 102.477 77.558 102.647 77.4855C102.824 77.405 102.953 77.3003 103.033 77.1715C103.114 77.0346 103.154 76.8896 103.154 76.7366C103.154 76.5111 103.098 76.342 102.985 76.2293C102.88 76.1085 102.719 76.0159 102.502 75.9514C102.292 75.879 102.039 75.8145 101.741 75.7582C101.459 75.7098 101.185 75.6454 100.919 75.5649C100.662 75.4763 100.428 75.3676 100.219 75.2387C100.017 75.1099 99.8562 74.9488 99.7354 74.7556C99.6146 74.5542 99.5542 74.3086 99.5542 74.0187C99.5542 73.6724 99.6468 73.3624 99.8321 73.0886C100.017 72.8067 100.279 72.5893 100.617 72.4363C100.964 72.2752 101.37 72.1947 101.837 72.1947C102.514 72.1947 103.057 72.3558 103.468 72.6779C103.879 73 104.12 73.455 104.193 74.0429H103.021C102.989 73.7691 102.868 73.5597 102.659 73.4147C102.449 73.2617 102.171 73.1852 101.825 73.1852C101.479 73.1852 101.213 73.2537 101.028 73.3906C100.843 73.5275 100.75 73.7087 100.75 73.9342C100.75 74.0791 100.802 74.208 100.907 74.3207C101.012 74.4334 101.165 74.5301 101.366 74.6106C101.576 74.6831 101.829 74.7515 102.127 74.816C102.554 74.8965 102.936 74.9972 103.275 75.1179C103.613 75.2387 103.883 75.4159 104.084 75.6494C104.285 75.883 104.386 76.2172 104.386 76.652C104.394 77.0305 104.297 77.3647 104.096 77.6546C103.903 77.9446 103.625 78.17 103.263 78.3311C102.908 78.4922 102.486 78.5727 101.994 78.5727Z" fill="black"/>
</g>
</g>
<rect x="85.0044" y="7.22168" width="59.1369" height="30.8851" rx="15.4425" fill="#CB132D"/>
<path d="M99.6691 30.1641V16.5669L96.8431 17.285V15.5477L100.526 13.9494H102.032V30.1641H99.6691ZM110.536 30.442C109.393 30.442 108.412 30.2413 107.594 29.8398C106.776 29.4228 106.127 28.8669 105.648 28.172C105.17 27.4616 104.876 26.6663 104.768 25.7861H107.038C107.193 26.5737 107.579 27.2223 108.196 27.7319C108.814 28.226 109.594 28.4731 110.536 28.4731C111.246 28.4731 111.856 28.3032 112.366 27.9635C112.875 27.6238 113.269 27.1682 113.547 26.5968C113.825 26.0255 113.964 25.3923 113.964 24.6974C113.964 23.9562 113.817 23.3153 113.524 22.7748C113.246 22.2189 112.852 21.7865 112.343 21.4776C111.848 21.1688 111.269 21.0144 110.605 21.0144C109.802 21.0144 109.107 21.1997 108.521 21.5703C107.949 21.9255 107.532 22.381 107.27 22.937H105.023L106.366 13.9494H115.099V15.9646H108.15L107.293 20.5048C107.664 20.0878 108.158 19.7481 108.775 19.4855C109.409 19.223 110.127 19.0918 110.93 19.0918C111.748 19.0918 112.482 19.2385 113.13 19.5319C113.779 19.8098 114.327 20.2036 114.775 20.7132C115.238 21.2228 115.586 21.8174 115.817 22.4968C116.064 23.1763 116.188 23.8944 116.188 24.6511C116.188 25.4695 116.057 26.2262 115.794 26.9211C115.532 27.616 115.153 28.2337 114.659 28.7742C114.18 29.2993 113.586 29.7085 112.875 30.0019C112.18 30.2953 111.401 30.442 110.536 30.442ZM125.042 30.442C123.606 30.442 122.371 30.0946 121.336 29.3997C120.302 28.6893 119.506 27.7087 118.95 26.4579C118.394 25.1916 118.116 23.7245 118.116 22.0567C118.116 20.3889 118.394 18.9296 118.95 17.6788C119.506 16.4125 120.302 15.4319 121.336 14.737C122.371 14.0266 123.606 13.6714 125.042 13.6714C126.479 13.6714 127.706 14.0266 128.725 14.737C129.76 15.4319 130.548 16.4125 131.088 17.6788C131.644 18.9296 131.922 20.3889 131.922 22.0567C131.922 23.7245 131.644 25.1916 131.088 26.4579C130.548 27.7087 129.76 28.6893 128.725 29.3997C127.706 30.0946 126.479 30.442 125.042 30.442ZM125.042 28.3804C125.907 28.3804 126.679 28.1256 127.359 27.616C128.054 27.1064 128.594 26.3806 128.98 25.4386C129.366 24.4967 129.559 23.3693 129.559 22.0567C129.559 20.7441 129.366 19.6168 128.98 18.6748C128.594 17.7328 128.054 17.0147 127.359 16.5206C126.679 16.011 125.907 15.7562 125.042 15.7562C124.162 15.7562 123.375 16.011 122.68 16.5206C121.985 17.0147 121.444 17.7328 121.058 18.6748C120.672 19.6168 120.479 20.7441 120.479 22.0567C120.479 23.3693 120.672 24.4967 121.058 25.4386C121.444 26.3806 121.985 27.1064 122.68 27.616C123.375 28.1256 124.162 28.3804 125.042 28.3804Z" fill="white"/>
<defs>
<filter id="filter0_d_587_2525" x="-1.3113e-05" y="-0.000411034" width="158.139" height="128.413" filterUnits="userSpaceOnUse" color-interpolation-filters="sRGB">
<feFlood flood-opacity="0" result="BackgroundImageFix"/>
<feColorMatrix in="SourceAlpha" type="matrix" values="0 0 0 0 0 0 0 0 0 0 0 0 0 0 0 0 0 0 127 0" result="hardAlpha"/>
<feOffset dx="1.59614" dy="6.38456"/>
<feGaussianBlur stdDeviation="17.2311"/>
<feComposite in2="hardAlpha" operator="out"/>
<feColorMatrix type="matrix" values="0 0 0 0 0.262583 0 0 0 0 0.262583 0 0 0 0 0.262583 0 0 0 0.16 0"/>
<feBlend mode="normal" in2="BackgroundImageFix" result="effect1_dropShadow_587_2525"/>
<feBlend mode="normal" in="SourceGraphic" in2="effect1_dropShadow_587_2525" result="shape"/>
</filter>
<clipPath id="clip0_587_2525">
<rect x="32.866" y="28.0771" width="89.2145" height="59.4886" rx="11.0279" fill="white"/>
</clipPath>
</defs>
</svg>
