<svg width="112" height="89" viewBox="0 0 112 89" fill="none" xmlns="http://www.w3.org/2000/svg">
<g filter="url(#filter0_d_587_2473)">
<g clip-path="url(#clip0_587_2473)">
<rect x="23.1246" y="19.7559" width="62.7715" height="41.8559" rx="7.75924" fill="white"/>
<path d="M52.1896 31.5176C52.8488 31.5176 53.4932 31.3221 54.0413 30.9559C54.5894 30.5896 55.0166 30.0691 55.2689 29.4601C55.5211 28.851 55.5871 28.1809 55.4585 27.5343C55.3299 26.8878 55.0125 26.2939 54.5464 25.8278C54.0802 25.3616 53.4864 25.0442 52.8398 24.9156C52.1933 24.787 51.5231 24.853 50.9141 25.1053C50.3051 25.3575 49.7845 25.7847 49.4183 26.3329C49.052 26.881 48.8566 27.5254 48.8566 28.1846C48.8566 29.0685 49.2077 29.9163 49.8328 30.5414C50.4578 31.1664 51.3056 31.5176 52.1896 31.5176ZM58.8556 33.1841C59.35 33.1841 59.8333 33.0375 60.2444 32.7628C60.6555 32.4881 60.9759 32.0977 61.1651 31.6409C61.3543 31.1842 61.4038 30.6816 61.3073 30.1966C61.2109 29.7117 60.9728 29.2663 60.6232 28.9167C60.2736 28.5671 59.8282 28.3291 59.3433 28.2326C58.8584 28.1361 58.3557 28.1857 57.899 28.3749C57.4422 28.5641 57.0518 28.8845 56.7771 29.2955C56.5024 29.7066 56.3558 30.1899 56.3558 30.6843C56.3558 31.3473 56.6192 31.9831 57.088 32.4519C57.5568 32.9207 58.1926 33.1841 58.8556 33.1841ZM62.1886 39.0168C62.4096 39.0168 62.6215 38.9291 62.7778 38.7728C62.9341 38.6165 63.0218 38.4046 63.0218 38.1836C63.0212 37.4048 62.8023 36.6418 62.3899 35.9812C61.9776 35.3206 61.3883 34.7887 60.689 34.446C59.9897 34.1033 59.2084 33.9635 58.4336 34.0423C57.6589 34.1212 56.9217 34.4156 56.3058 34.8922C55.4897 34.0793 54.4511 33.5262 53.321 33.3028C52.1909 33.0793 51.02 33.1955 49.9558 33.6366C48.8917 34.0778 47.982 34.8242 47.3415 35.7817C46.701 36.7392 46.3584 37.8649 46.3568 39.0168C46.3568 39.2378 46.4446 39.4498 46.6009 39.606C46.7571 39.7623 46.9691 39.8501 47.1901 39.8501H57.1891C57.4101 39.8501 57.622 39.7623 57.7783 39.606C57.9345 39.4498 58.0223 39.2378 58.0223 39.0168" fill="black"/>
<path d="M32.1583 55.0156V49.0662H33.1612L35.1755 53.0863L37.1813 49.0662H38.1927V55.0156H37.3428V50.5536L35.4985 54.1827H34.8441L33.0082 50.5621V55.0156H32.1583ZM39.7096 56.8854L40.755 54.5397H40.5085L38.8172 50.732H39.7351L41.0779 53.8427L42.4293 50.732H43.3217L40.602 56.8854H39.7096ZM45.9492 55.0156V49.0662H46.7991L49.8333 53.6303V49.0662H50.6833V55.0156H49.8333L46.7991 50.4601V55.0156H45.9492ZM53.6505 55.1176C53.2426 55.1176 52.8799 55.0241 52.5626 54.8371C52.2453 54.6502 51.996 54.3895 51.8147 54.0552C51.6391 53.7209 51.5512 53.3328 51.5512 52.8908C51.5512 52.4375 51.6391 52.0437 51.8147 51.7094C51.996 51.3695 52.2453 51.106 52.5626 50.919C52.8799 50.7264 53.2482 50.6301 53.6675 50.6301C54.0868 50.6301 54.4466 50.7235 54.7469 50.9105C55.0472 51.0975 55.2795 51.3468 55.4439 51.6585C55.6082 51.9644 55.6903 52.3044 55.6903 52.6784C55.6903 52.735 55.6875 52.7973 55.6818 52.8653C55.6818 52.9277 55.679 52.9985 55.6733 53.0778H52.1717V52.4744H54.8404C54.8234 52.1174 54.7044 51.8398 54.4834 51.6415C54.2625 51.4375 53.9877 51.3355 53.659 51.3355C53.4267 51.3355 53.2142 51.3893 53.0216 51.497C52.8289 51.599 52.6731 51.7519 52.5541 51.9559C52.4408 52.1542 52.3842 52.4064 52.3842 52.7124V52.9503C52.3842 53.2676 52.4408 53.5368 52.5541 53.7577C52.6731 53.9731 52.8289 54.1374 53.0216 54.2507C53.2142 54.3584 53.4239 54.4122 53.6505 54.4122C53.9225 54.4122 54.1463 54.3527 54.322 54.2337C54.4976 54.1147 54.6279 53.9532 54.7129 53.7492H55.5628C55.4892 54.0099 55.3645 54.245 55.1889 54.4547C55.0132 54.6587 54.7951 54.8201 54.5344 54.9391C54.2795 55.0581 53.9848 55.1176 53.6505 55.1176ZM58.1162 55.0156C57.8443 55.0156 57.6091 54.9731 57.4108 54.8881C57.2125 54.8031 57.0595 54.6615 56.9519 54.4632C56.8442 54.2649 56.7904 53.9957 56.7904 53.6558V51.4545H56.0509V50.732H56.7904L56.8924 49.6612H57.6403V50.732H58.8557V51.4545H57.6403V53.6643C57.6403 53.9079 57.6913 54.0751 57.7933 54.1657C57.8953 54.2507 58.0709 54.2932 58.3202 54.2932H58.8132V55.0156H58.1162ZM60.4898 55.0156L59.232 50.732H60.0734L61.0083 54.3017L60.8468 54.2932L61.8837 50.732H62.8356L63.8725 54.2932L63.711 54.3017L64.6374 50.732H65.4958L64.238 55.0156H63.3626L62.2747 51.3015H62.4446L61.3568 55.0156H60.4898ZM67.8983 55.1176C67.496 55.1176 67.1334 55.0241 66.8104 54.8371C66.4931 54.6502 66.241 54.3895 66.054 54.0552C65.8727 53.7153 65.782 53.3243 65.782 52.8823C65.782 52.429 65.8755 52.0353 66.0625 51.701C66.2495 51.361 66.5045 51.0975 66.8274 50.9105C67.1504 50.7235 67.513 50.6301 67.9153 50.6301C68.3233 50.6301 68.6859 50.7235 69.0032 50.9105C69.3205 51.0975 69.5698 51.3582 69.7511 51.6925C69.9381 52.0268 70.0316 52.4205 70.0316 52.8738C70.0316 53.3271 69.9381 53.7209 69.7511 54.0552C69.5698 54.3895 69.3177 54.6502 68.9947 54.8371C68.6717 55.0241 68.3063 55.1176 67.8983 55.1176ZM67.8983 54.3867C68.1306 54.3867 68.3403 54.33 68.5273 54.2167C68.7199 54.1034 68.8729 53.9362 68.9862 53.7153C69.1052 53.4886 69.1647 53.2081 69.1647 52.8738C69.1647 52.5395 69.108 52.2619 68.9947 52.0409C68.8814 51.8143 68.7284 51.6443 68.5358 51.531C68.3488 51.4176 68.142 51.361 67.9153 51.361C67.6887 51.361 67.479 51.4176 67.2864 51.531C67.0937 51.6443 66.9379 51.8143 66.8189 52.0409C66.7056 52.2619 66.6489 52.5395 66.6489 52.8738C66.6489 53.2081 66.7056 53.4886 66.8189 53.7153C66.9379 53.9362 67.0909 54.1034 67.2779 54.2167C67.4705 54.33 67.6773 54.3867 67.8983 54.3867ZM70.8614 55.0156V50.732H71.6263L71.7028 51.5395C71.7991 51.3468 71.9238 51.1853 72.0768 51.055C72.2298 50.919 72.4083 50.8142 72.6122 50.7405C72.8219 50.6669 73.0599 50.6301 73.3262 50.6301V51.531H73.0202C72.8445 51.531 72.6774 51.5536 72.5187 51.599C72.3601 51.6386 72.2184 51.7094 72.0938 51.8114C71.9748 51.9134 71.8813 52.0522 71.8133 52.2279C71.7453 52.4035 71.7113 52.6217 71.7113 52.8823V55.0156H70.8614ZM76.6309 55.0156L74.6591 52.6699L76.444 50.732H77.4724L75.3476 53.0013V52.3639L77.7018 55.0156H76.6309ZM73.9367 55.0156V48.8962H74.7866V55.0156H73.9367Z" fill="black"/>
</g>
</g>
<rect x="59.8093" y="5.08203" width="47.3154" height="21.7308" rx="10.8654" fill="#CB132D"/>
<path d="M72.5097 22.1428C71.7817 22.1428 71.1135 22.0125 70.505 21.7517C69.9074 21.4801 69.4294 21.078 69.0708 20.5456C68.7231 20.0024 68.5384 19.3233 68.5167 18.5084H70.1465C70.1573 18.9213 70.2551 19.2961 70.4398 19.6329C70.6246 19.9698 70.8908 20.2414 71.2384 20.4478C71.597 20.6434 72.0208 20.7412 72.5097 20.7412C72.9986 20.7412 73.4061 20.6489 73.7321 20.4641C74.0689 20.2794 74.3188 20.0295 74.4818 19.7144C74.6556 19.3993 74.7425 19.0462 74.7425 18.655C74.7425 18.1661 74.623 17.7695 74.384 17.4653C74.1558 17.1611 73.8407 16.9329 73.4387 16.7808C73.0475 16.6287 72.6075 16.5526 72.1185 16.5526H71.271V15.1836H72.1185C72.8031 15.1836 73.3463 15.026 73.7484 14.7109C74.1612 14.3958 74.3677 13.9503 74.3677 13.3745C74.3677 12.8964 74.2101 12.5052 73.895 12.201C73.5799 11.8968 73.1182 11.7447 72.5097 11.7447C71.9012 11.7447 71.4177 11.9185 71.0592 12.2662C70.7115 12.6139 70.5159 13.0539 70.4724 13.5863H68.8589C68.8915 12.9453 69.0599 12.3803 69.3642 11.8913C69.6793 11.3915 70.103 11.0112 70.6354 10.7505C71.1787 10.4788 71.8034 10.343 72.5097 10.343C73.2703 10.343 73.9059 10.4788 74.4166 10.7505C74.9381 11.0112 75.3293 11.3644 75.59 11.8098C75.8617 12.2553 75.9975 12.7443 75.9975 13.2767C75.9975 13.6787 75.9214 14.0536 75.7693 14.4012C75.6172 14.7381 75.3999 15.0314 75.1174 15.2813C74.8349 15.5312 74.4926 15.7105 74.0906 15.8192C74.5252 15.9061 74.9164 16.0745 75.2641 16.3244C75.6118 16.5743 75.8834 16.9003 76.079 17.3023C76.2746 17.6935 76.3723 18.1498 76.3723 18.6713C76.3723 19.2907 76.2257 19.8665 75.9323 20.3989C75.6389 20.9205 75.2043 21.3442 74.6285 21.6702C74.0635 21.9853 73.3572 22.1428 72.5097 22.1428ZM82.6919 22.1428C81.6815 22.1428 80.8122 21.8984 80.0842 21.4094C79.3563 20.9096 78.7967 20.2197 78.4055 19.3396C78.0144 18.4486 77.8188 17.4164 77.8188 16.2429C77.8188 15.0695 78.0144 14.0427 78.4055 13.1626C78.7967 12.2716 79.3563 11.5817 80.0842 11.0927C80.8122 10.5929 81.6815 10.343 82.6919 10.343C83.7024 10.343 84.5662 10.5929 85.2833 11.0927C86.0113 11.5817 86.5655 12.2716 86.9457 13.1626C87.3369 14.0427 87.5325 15.0695 87.5325 16.2429C87.5325 17.4164 87.3369 18.4486 86.9457 19.3396C86.5655 20.2197 86.0113 20.9096 85.2833 21.4094C84.5662 21.8984 83.7024 22.1428 82.6919 22.1428ZM82.6919 20.6923C83.3004 20.6923 83.8437 20.513 84.3217 20.1545C84.8107 19.7959 85.191 19.2852 85.4626 18.6225C85.7343 17.9597 85.8701 17.1665 85.8701 16.2429C85.8701 15.3194 85.7343 14.5262 85.4626 13.8634C85.191 13.2006 84.8107 12.6954 84.3217 12.3477C83.8437 11.9891 83.3004 11.8098 82.6919 11.8098C82.0726 11.8098 81.5185 11.9891 81.0295 12.3477C80.5406 12.6954 80.1603 13.2006 79.8887 13.8634C79.617 14.5262 79.4812 15.3194 79.4812 16.2429C79.4812 17.1665 79.617 17.9597 79.8887 18.6225C80.1603 19.2852 80.5406 19.7959 81.0295 20.1545C81.5185 20.513 82.0726 20.6923 82.6919 20.6923ZM93.6187 22.1428C92.6082 22.1428 91.739 21.8984 91.011 21.4094C90.283 20.9096 89.7234 20.2197 89.3323 19.3396C88.9411 18.4486 88.7455 17.4164 88.7455 16.2429C88.7455 15.0695 88.9411 14.0427 89.3323 13.1626C89.7234 12.2716 90.283 11.5817 91.011 11.0927C91.739 10.5929 92.6082 10.343 93.6187 10.343C94.6292 10.343 95.493 10.5929 96.2101 11.0927C96.9381 11.5817 97.4922 12.2716 97.8725 13.1626C98.2636 14.0427 98.4592 15.0695 98.4592 16.2429C98.4592 17.4164 98.2636 18.4486 97.8725 19.3396C97.4922 20.2197 96.9381 20.9096 96.2101 21.4094C95.493 21.8984 94.6292 22.1428 93.6187 22.1428ZM93.6187 20.6923C94.2271 20.6923 94.7704 20.513 95.2485 20.1545C95.7374 19.7959 96.1177 19.2852 96.3893 18.6225C96.661 17.9597 96.7968 17.1665 96.7968 16.2429C96.7968 15.3194 96.661 14.5262 96.3893 13.8634C96.1177 13.2006 95.7374 12.6954 95.2485 12.3477C94.7704 11.9891 94.2271 11.8098 93.6187 11.8098C92.9993 11.8098 92.4452 11.9891 91.9563 12.3477C91.4673 12.6954 91.087 13.2006 90.8154 13.8634C90.5438 14.5262 90.4079 15.3194 90.4079 16.2429C90.4079 17.1665 90.5438 17.9597 90.8154 18.6225C91.087 19.2852 91.4673 19.7959 91.9563 20.1545C92.4452 20.513 92.9993 20.6923 93.6187 20.6923Z" fill="white"/>
<defs>
<filter id="filter0_d_587_2473" x="5.98431e-05" y="0.0004282" width="111.267" height="90.3507" filterUnits="userSpaceOnUse" color-interpolation-filters="sRGB">
<feFlood flood-opacity="0" result="BackgroundImageFix"/>
<feColorMatrix in="SourceAlpha" type="matrix" values="0 0 0 0 0 0 0 0 0 0 0 0 0 0 0 0 0 0 127 0" result="hardAlpha"/>
<feOffset dx="1.12305" dy="4.49219"/>
<feGaussianBlur stdDeviation="12.1238"/>
<feComposite in2="hardAlpha" operator="out"/>
<feColorMatrix type="matrix" values="0 0 0 0 0.262583 0 0 0 0 0.262583 0 0 0 0 0.262583 0 0 0 0.16 0"/>
<feBlend mode="normal" in2="BackgroundImageFix" result="effect1_dropShadow_587_2473"/>
<feBlend mode="normal" in="SourceGraphic" in2="effect1_dropShadow_587_2473" result="shape"/>
</filter>
<clipPath id="clip0_587_2473">
<rect x="23.1246" y="19.7559" width="62.7715" height="41.8559" rx="7.75924" fill="white"/>
</clipPath>
</defs>
</svg>
