<svg width="36" height="36" viewBox="0 0 36 36" fill="none" xmlns="http://www.w3.org/2000/svg">
<path d="M35.3529 16.2157L31.531 6.9879C31.0542 5.83869 30.1597 4.94263 29.009 4.46742L19.7827 0.645544C18.6335 0.168781 17.3663 0.168781 16.2171 0.645544L6.98157 4.47052L6.88373 4.51245C5.78578 5.00009 4.92854 5.87907 4.46886 6.9879L0.645433 16.2157C0.16867 17.3649 0.16867 18.6321 0.645433 19.7813L4.46731 29.0091C4.94407 30.1583 5.83858 31.0544 6.98778 31.5311L16.2156 35.353C16.7902 35.5906 17.3943 35.7102 17.9984 35.7102C18.6025 35.7102 19.2066 35.5906 19.7812 35.353L29.009 31.5311C30.1582 31.0544 31.0542 30.1598 31.531 29.0091L35.3529 19.7813C35.825 18.6399 35.825 17.3571 35.3529 16.2157ZM28.4157 5.90237C29.1814 6.21917 29.7792 6.81707 30.0961 7.58269L33.9179 16.8105C33.9738 16.9456 34.0158 17.0838 34.053 17.222L24.8641 17.208C23.5611 17.2065 22.2768 16.8151 21.2332 16.034C21.1711 15.9874 21.1105 15.9408 21.0515 15.8927L26.0133 10.9309C26.3161 10.6281 26.3161 10.1358 26.0133 9.83295C25.7105 9.53012 25.2182 9.53012 24.9153 9.83295L19.9722 14.7761C19.921 14.7077 19.8728 14.6394 19.8247 14.5695C19.1336 13.5663 18.7935 12.3612 18.792 11.1437L18.778 1.94694C18.9177 1.98266 19.0544 2.02614 19.1895 2.08205L28.4173 5.90392L28.4157 5.90237ZM5.90225 7.58269C6.20819 6.84347 6.77968 6.25644 7.50337 5.93653L16.8104 2.08049C16.9455 2.02459 17.0837 1.98266 17.2219 1.94538L17.2079 11.1483C17.2064 12.3115 16.8989 13.4638 16.2637 14.4375C16.169 14.5835 16.0665 14.7248 15.9609 14.863L10.9541 9.85624C10.6668 9.56894 10.2009 9.52235 9.88874 9.7817C9.53 10.0783 9.51137 10.6094 9.83283 10.9309L14.8645 15.9625C14.4421 16.2918 13.6609 16.6163 13.004 16.854C12.3471 17.0916 11.6094 17.2236 10.8889 17.2236H1.94527C1.98099 17.0838 2.02448 16.9471 2.08038 16.812L5.90225 7.58424V7.58269ZM7.58257 30.0962C6.8154 29.7794 6.21906 29.1815 5.90225 28.4159L2.08038 19.1881C2.02448 19.053 1.98254 18.9147 1.94527 18.7765H10.9028C11.6094 18.7765 12.3129 18.8961 12.9792 19.1322C13.6454 19.3682 14.3629 19.6633 14.7744 19.9708L9.83128 24.9139C9.52845 25.2167 9.52845 25.709 9.83128 26.0118C10.1341 26.3147 10.6264 26.3147 10.9292 26.0118L15.8925 21.0485C16.2435 21.4834 16.5867 22.2925 16.8383 22.9727C17.0899 23.6529 17.2234 24.3936 17.2234 25.1298V34.0532C17.0837 34.0174 16.947 33.974 16.8119 33.918L7.58413 30.0962H7.58257ZM30.0961 28.4143C29.7792 29.1815 29.1814 29.7778 28.4157 30.0946L19.188 33.9165C19.0528 33.9724 18.9146 34.0143 18.7764 34.0516V25.1111C18.7764 24.389 18.9007 23.6746 19.146 22.996C19.3914 22.3173 19.7082 21.5595 20.0374 21.1355L24.8905 25.9886C25.1778 26.2759 25.6421 26.3209 25.9558 26.0631C26.3146 25.7665 26.3332 25.2338 26.0117 24.9139L21.1354 20.0375C21.2721 19.9304 21.4149 19.8295 21.5609 19.7347C22.5346 19.0996 23.6869 18.7921 24.8501 18.7905L34.0546 18.7765C34.0189 18.9163 33.9754 19.053 33.9195 19.1881L30.0976 28.4159L30.0961 28.4143Z" fill="#10333B"/>
<path d="M16.2215 0.333519C17.4106 -0.126095 18.7114 -0.110623 19.8931 0.37963L29.1191 4.20143C30.3026 4.69016 31.2313 5.59896 31.7482 6.76392L31.7968 6.87751L31.7971 6.87779L35.6189 16.1054L35.6645 16.2196C36.1197 17.4024 36.1045 18.7172 35.6189 19.8913L31.7971 29.1192C31.2911 30.3406 30.3388 31.291 29.1194 31.797L29.1191 31.7972L19.8914 35.619C19.2824 35.8709 18.6406 35.998 17.9984 35.998C17.3561 35.998 16.7147 35.8709 16.1056 35.619L6.87768 31.7972L6.8774 31.797C5.65765 31.2909 4.70722 30.3389 4.20132 29.1195L0.379519 19.8915C-0.126506 18.6718 -0.126506 17.3252 0.379519 16.1054L4.20301 6.87779L4.24996 6.76814C4.74809 5.64275 5.63791 4.75065 6.7669 4.24923L6.77027 4.24782L6.86812 4.20593L6.87149 4.20452L16.1067 0.37963L16.2215 0.333519ZM19.6724 0.911584C18.5938 0.464123 17.406 0.464123 16.3274 0.911584L7.09164 4.73648L7.00026 4.77528L7.00054 4.77556C5.97009 5.23323 5.16609 6.0574 4.73468 7.09794L4.73496 7.09822L0.911472 16.3259C0.464012 17.4044 0.464012 18.5925 0.911472 19.6711L4.73327 28.8988L4.77629 28.9991C5.23337 30.0296 6.05288 30.8315 7.09754 31.265L16.3252 35.0868C16.8653 35.3102 17.4324 35.4222 17.9984 35.4222C18.5289 35.4222 19.0602 35.3239 19.5695 35.1276L19.6713 35.0868L28.8989 31.265C29.9777 30.8174 30.8174 29.9788 31.2649 28.8988L35.0867 19.6714L35.1272 19.5705C35.5295 18.5252 35.5158 17.3631 35.0867 16.3256L31.2649 7.09794C30.8172 6.01932 29.9788 5.17953 28.8992 4.73367L28.8987 4.73339L19.6724 0.911584ZM34.3335 18.8479C34.295 18.9983 34.2476 19.1482 34.1856 19.298L30.1987 28.9241L30.1768 28.9021C29.8336 29.5094 29.3155 29.9923 28.6805 30.2922L28.5258 30.3605L19.2982 34.1826C19.1466 34.2453 18.9947 34.291 18.8514 34.3296L18.4884 34.4275V25.111C18.4885 24.3558 18.6185 23.6082 18.8753 22.898C19.1194 22.2229 19.4493 21.4235 19.8102 20.9588L20.0104 20.701L25.094 25.7849C25.2874 25.9784 25.5853 25.9949 25.773 25.8406C25.9993 25.6529 26.0101 25.3185 25.8087 25.118L20.702 20.0113L20.9579 19.8108C21.0659 19.7261 21.1774 19.6455 21.2905 19.5688L21.4041 19.4931C22.4292 18.8246 23.6371 18.5042 24.8497 18.5026L34.4254 18.488L34.3335 18.8479ZM16.9356 25.1298C16.9356 24.4278 16.8081 23.7208 16.5684 23.0726C16.3639 22.5197 16.1096 21.9147 15.8526 21.4953L11.1327 26.2154C10.7175 26.6306 10.043 26.6306 9.6277 26.2154C9.21246 25.8001 9.21245 25.1256 9.6277 24.7103L14.3183 20.0195C13.9347 19.8023 13.4061 19.5888 12.883 19.4034C12.248 19.1785 11.5769 19.0644 10.9028 19.0644H2.34117C2.34299 19.0689 2.34466 19.0734 2.34651 19.0779L6.16831 28.3058L6.22511 28.4343C6.52156 29.0624 7.03147 29.5517 7.67645 29.8227L7.69416 29.8302L16.9221 33.6521L16.9356 33.6571V25.1298ZM17.4959 11.1489C17.4943 12.3616 17.1736 13.5695 16.5049 14.5948C16.4049 14.7487 16.2979 14.8962 16.1897 15.0379L15.9901 15.2994L10.7504 10.06C10.556 9.86555 10.2576 9.8496 10.0728 10.0032L10.0722 10.0037C9.84563 10.1911 9.8339 10.5248 10.0365 10.7274L15.2984 15.9893L15.0414 16.1895C14.5779 16.5508 13.7545 16.8886 13.102 17.1247C12.4139 17.3735 11.6431 17.5115 10.889 17.5115H1.57445L1.66639 17.1522C1.70484 17.0018 1.7523 16.8519 1.81428 16.7021L5.61443 7.52699V7.52558L5.63636 7.47272C5.9703 6.66584 6.59482 6.02347 7.38686 5.6733L7.39304 5.67049L16.7003 1.81439L16.8139 1.77053C16.9272 1.7294 17.0395 1.69633 17.147 1.66734L17.5103 1.5695L17.4959 11.1489ZM18.8492 1.6679C18.9997 1.70637 19.1497 1.75406 19.2996 1.81607L28.5253 5.63675L28.5258 5.63647C29.362 5.98249 30.0161 6.63629 30.3621 7.47244L34.1839 16.7004L34.228 16.814C34.2692 16.9273 34.3019 17.0396 34.3309 17.1471L34.4291 17.5104L24.8637 17.4961C23.5043 17.4944 22.1583 17.0861 21.0608 16.2646L21.0605 16.2643C20.9967 16.2164 20.9327 16.1674 20.8696 16.1158L20.6227 15.9143L25.8098 10.7274L25.8433 10.6903C25.9994 10.4987 25.9882 10.2151 25.8098 10.0366C25.6313 9.85809 25.3475 9.84688 25.1559 10.0032L25.119 10.0366L19.9412 15.2145L19.7418 14.9488C19.7146 14.9124 19.6884 14.8762 19.6628 14.8402L19.5875 14.7328C18.9057 13.7431 18.5514 12.571 18.5084 11.382L18.5039 11.1441L18.4896 1.57596L18.8492 1.6679ZM16.9204 2.34662L7.61938 6.19963L7.61966 6.19991C6.97169 6.48639 6.45794 7.0097 6.17787 7.67066L6.16831 7.69428L2.34651 16.9222C2.34466 16.9267 2.34299 16.9312 2.34117 16.9357H10.889C11.5759 16.9357 12.2804 16.8094 12.906 16.5831C13.4324 16.3928 14.0076 16.1562 14.4128 15.9179L9.62938 11.1345C9.20285 10.708 9.21332 10.011 9.66059 9.59885L9.7053 9.55977C10.1447 9.19518 10.7777 9.27253 11.1578 9.65255L15.9265 14.4216C15.9591 14.3748 15.9914 14.3281 16.0221 14.2807L16.0227 14.2802L16.1318 14.1053C16.6597 13.2209 16.9187 12.192 16.9201 11.148L16.9331 2.34156C16.9289 2.34326 16.9246 2.34489 16.9204 2.34662ZM19.0797 11.1433L19.0839 11.3614C19.1222 12.4202 19.4298 13.4547 20.0106 14.3302L24.7116 9.6295L24.7515 9.59154C25.1691 9.21451 25.8147 9.22725 26.217 9.6295C26.6191 10.0318 26.6318 10.6774 26.2546 11.0949L26.217 11.1345L21.4876 15.8634C22.4623 16.5643 23.652 16.9188 24.8643 16.9202L33.6567 16.9332L33.6519 16.9205L29.8301 7.69287C29.5428 6.99844 29.0016 6.45675 28.3074 6.16899L28.3071 6.16983L19.0794 2.34803C19.0752 2.34626 19.0708 2.34471 19.0665 2.34297L19.0797 11.1433ZM17.5114 34.4238L17.1521 34.3322C17.0016 34.2937 16.8518 34.246 16.702 34.184L7.52687 30.3841H7.52547L7.47261 30.3622C6.68691 30.0377 6.06446 29.4425 5.70468 28.6806L5.63636 28.526L1.81428 19.2983C1.75157 19.1467 1.70587 18.9948 1.66723 18.8515L1.56939 18.4886H10.9028C11.6417 18.4886 12.3778 18.6137 13.0753 18.8608C13.7387 19.0959 14.4957 19.403 14.9467 19.74L15.2132 19.9391L10.0348 25.1175C9.84444 25.3078 9.84445 25.6179 10.0348 25.8083C10.2252 25.9987 10.5352 25.9986 10.7256 25.8083L15.9155 20.6186L16.1166 20.8677C16.5014 21.3445 16.8584 22.1973 17.1082 22.8727C17.3716 23.5849 17.5114 24.3596 17.5114 25.1298V34.4238ZM19.0643 33.6554C19.0687 33.6536 19.0733 33.6522 19.0778 33.6504L28.3057 29.8286L28.4342 29.7718C29.0676 29.4728 29.5603 28.9571 29.8299 28.3044L29.9946 27.9057L29.9963 27.9074L33.6533 19.0779L33.6584 19.0649L24.8505 19.0784C23.7369 19.0799 22.6403 19.3744 21.7181 19.9759L21.7176 19.9762C21.6699 20.0071 21.6228 20.039 21.5761 20.0712L26.2147 24.7098L26.2549 24.7519C26.654 25.1944 26.6145 25.8922 26.1394 26.2851L26.1385 26.2854C25.6988 26.6467 25.068 26.5732 24.6869 26.192L20.0818 21.5869C19.8453 21.9879 19.6129 22.5517 19.4168 23.0939C19.1829 23.7409 19.0643 24.422 19.0643 25.111V33.6554Z" fill="#10333B"/>
</svg>
